<?xml version="1.0" encoding="UTF-8"?>
<!DOCTYPE svg PUBLIC "-//W3C//DTD SVG 1.1//EN" "http://www.w3.org/Graphics/SVG/1.1/DTD/svg11.dtd">
<!-- Creator: CorelDRAW X8 -->
<svg xmlns="http://www.w3.org/2000/svg" xml:space="preserve" width="6.4in" height="3.6in" version="1.1" style="shape-rendering:geometricPrecision; text-rendering:geometricPrecision; image-rendering:optimizeQuality; fill-rule:evenodd; clip-rule:evenodd"
viewBox="0 0 6400 3600"
 xmlns:xlink="http://www.w3.org/1999/xlink">
 <defs>
  <style type="text/css">
   <![CDATA[
    .fil0 {fill:#1EF9B0}
   ]]>
  </style>
 </defs>
 <g id="Layer_x0020_1">
  <metadata id="CorelCorpID_0Corel-Layer"/>
  <g>
   <path class="fil0" d="M1745 1800c0,-100 81,-182 182,-182l2107 0 -781 -780c-34,-34 -53,-81 -53,-129 0,-101 81,-182 182,-182 48,0 94,19 128,53l1092 1091c34,34 53,81 53,129 0,48 -19,95 -53,129l-1092 1091c-34,34 -80,53 -128,53 -101,0 -182,-81 -182,-182 0,-48 19,-95 53,-129l781 -780 -2107 0c-101,0 -182,-82 -182,-182l0 0zm0 0l0 0 0 0z"/>
  </g>
 </g>
</svg>
